<?xml version="1.0" standalone="no"?><!DOCTYPE svg PUBLIC "-//W3C//DTD SVG 1.1//EN" "http://www.w3.org/Graphics/SVG/1.1/DTD/svg11.dtd"><svg t="1520437636661" class="icon" style="" viewBox="0 0 1024 1024" version="1.1" xmlns="http://www.w3.org/2000/svg" p-id="3802" xmlns:xlink="http://www.w3.org/1999/xlink" width="200" height="200"><defs><style type="text/css"></style></defs><path d="M406.557257 118.535314v137.903543c-87.1424 19.953371-128.892343 74.474057-134.363428 176.010972h134.363428v326.743771H114.293029V490.510629c0-194.179657 83.499886-343.010743 292.264228-371.975315m0-58.514285c-2.677029 0-5.354057 0.190171-8.045714 0.555885C177.503086 91.2384 55.778743 243.931429 55.778743 490.510629v268.668342a58.514286 58.514286 0 0 0 58.514286 58.514286h292.264228a58.514286 58.514286 0 0 0 58.514286-58.514286V432.449829a58.514286 58.514286 0 0 0-58.514286-58.514286h-64.526628c14.453029-37.610057 41.428114-52.180114 77.589942-60.459886a58.514286 58.514286 0 0 0 45.450972-57.0368V118.535314a58.514286 58.514286 0 0 0-58.514286-58.514285zM909.706971 264.821029v137.903542c-87.113143 19.953371-128.863086 74.474057-134.334171 176.010972h134.334171v326.743771H617.442743V636.796343c0-194.179657 83.514514-343.010743 292.264228-371.975314m0-58.514286c-2.677029 0-5.354057 0.190171-8.045714 0.555886-221.008457 30.676114-342.7328 183.354514-342.7328 429.948342v268.668343a58.514286 58.514286 0 0 0 58.514286 58.514286h292.264228a58.514286 58.514286 0 0 0 58.514286-58.514286V578.735543a58.514286 58.514286 0 0 0-58.514286-58.514286h-64.497371c14.453029-37.610057 41.413486-52.180114 77.575314-60.459886a58.514286 58.514286 0 0 0 45.436343-57.0368v-137.903542a58.543543 58.543543 0 0 0-58.514286-58.514286z" fill="#ffffff" p-id="3803"></path><path d="M359.614171 666.550857a14.628571 14.628571 0 0 1-14.628571-14.628571V491.271314h-68.081371a14.628571 14.628571 0 1 1 0-29.257143h87.771428c8.0896 0 9.567086 6.290286 9.567086 14.365258v175.542857a14.628571 14.628571 0 0 1-14.628572 14.628571zM871.614171 842.093714a14.628571 14.628571 0 0 1-14.628571-14.628571v-29.257143a14.628571 14.628571 0 1 1 29.257143 0v29.257143a14.628571 14.628571 0 0 1-14.628572 14.628571zM871.614171 754.322286a14.628571 14.628571 0 0 1-14.628571-14.628572v-102.136685h-68.081371a14.628571 14.628571 0 1 1 0-29.257143h87.771428c8.0896 0 9.567086 6.290286 9.567086 14.365257v117.028571a14.628571 14.628571 0 0 1-14.628572 14.628572z" fill="#ffffff" p-id="3804"></path></svg>