<?xml version="1.0" standalone="no"?><!DOCTYPE svg PUBLIC "-//W3C//DTD SVG 1.1//EN" "http://www.w3.org/Graphics/SVG/1.1/DTD/svg11.dtd"><svg t="1520410026196" class="icon" style="" viewBox="0 0 1025 1024" version="1.1" xmlns="http://www.w3.org/2000/svg" p-id="3316" xmlns:xlink="http://www.w3.org/1999/xlink" width="200.1953125" height="200"><defs><style type="text/css"></style></defs><path d="M743.112 501.559c-37.249-7.337-19.189-27.090-19.189-27.090s36.684-60.388-7.337-103.845c-54.18-54.18-186.244 6.773-186.244 6.773-50.229 15.802-37.249-7.337-29.912-45.714 0-45.714-15.803-123.034-149.559-77.319-133.757 45.714-248.888 206.561-248.888 206.561-80.141 106.667-69.418 189.066-69.418 189.066 19.753 182.293 213.334 231.958 364.021 243.809 158.589 12.416 371.922-54.744 436.825-192.452 64.903-137.708-53.051-191.888-90.3-199.789zM408.437 842.441c-157.461 7.337-284.444-71.676-284.444-176.649 0-104.974 126.984-189.066 284.444-196.403 157.461-7.337 284.444 57.566 284.444 162.54 0 104.974-127.549 203.739-284.444 210.512z" p-id="3317" fill="#ffffff"></path><path d="M376.832 538.808c-158.025 18.624-139.965 166.491-139.965 166.491s-1.693 46.843 42.328 70.547c92.558 50.229 187.937 19.753 235.909-42.328 48.536-61.517 20.317-212.769-138.272-194.709zM336.762 746.498c-29.347 3.386-53.051-13.545-53.051-38.378s20.882-50.229 50.794-53.616c33.862-3.386 55.873 16.367 55.873 41.199 0 24.833-24.268 47.972-53.616 50.794zM429.883 667.485c-10.159 7.337-22.575 6.208-27.654-2.257-5.644-8.466-3.386-22.575 6.773-29.912 11.852-8.466 23.704-6.208 29.347 2.257 5.079 8.466 1.693 22.011-8.466 29.912z" p-id="3318" fill="#ffffff"></path><path d="M819.866 437.785c12.981 0 23.704-9.594 25.397-21.446 0-1.129 0.564-1.693 0.564-2.822 19.189-173.828-142.222-143.916-142.222-143.916-14.109 0-25.961 11.852-25.961 25.961 0 14.109 11.287 25.961 25.961 25.961 116.261-25.397 90.3 90.3 90.3 90.3 0 14.109 11.852 25.961 25.961 25.961z" p-id="3319" fill="#ffffff"></path><path d="M801.241 134.716c-55.873-12.981-113.439-1.693-129.242 1.129-1.129 0-2.257 1.129-3.386 1.693-0.564 0-1.129 0.564-1.129 0.564-15.803 4.515-27.654 19.189-27.654 36.684 0 20.882 16.931 37.813 37.813 37.813 0 0 20.317-2.822 33.863-7.901 13.545-5.644 129.242-3.951 186.808 92.557 31.605 70.547 13.545 117.39 11.852 125.291 0 0-7.337 18.060-7.337 36.12 0 20.882 16.931 33.862 37.813 33.862 17.496 0 32.169-2.258 36.12-31.605v0c61.517-206.561-75.626-303.068-175.521-326.208z" p-id="3320" fill="#ffffff"></path></svg>